# xmcd
#
# Track frame offsets:
#	150
#	18102
#	32045
#	47655
#	67667
#	81300
#	98385
#	112605
#	133112
#	148170
#	165075
#	184412
#	203840
#	222715
#	239320
#
# Disc length: 3371 seconds
#
# Revision: 6
# Processed by: cddbd v1.5.2PL0 Copyright (c) Steve Scherf et al.
# Submitted via: EasyCDDAExtractor 2011.0.0.0
#
DISCID=c20d290f
DTITLE=Richard Clayderman - The Abba Collection
DYEAR=1993
DGENRE=Easy Listening
TTITLE0=Gimme! gimme! gimme! (A Man After Midnight)
TTITLE1=The winner takes it all
TTITLE2=Chiquitita
TTITLE3=Fernando
TTITLE4=Mamma mia
TTITLE5=Dancing queen
TTITLE6=I have a dream
TTITLE7=Super trouper
TTITLE8=The name of the game
TTITLE9=Lay all your love on me
TTITLE10=Knowing me, knowing you
TTITLE11=One of us
TTITLE12=S.O.S.
TTITLE13=Money, money, money
TTITLE14=Waterloo
EXTD=
EXTT0=
EXTT1=
EXTT2=
EXTT3=
EXTT4=
EXTT5=
EXTT6=
EXTT7=
EXTT8=
EXTT9=
EXTT10=
EXTT11=
EXTT12=
EXTT13=
EXTT14=
PLAYORDER=
